<svg width="17" height="48" viewBox="0 0 17 48" fill="none" xmlns="http://www.w3.org/2000/svg">
<path d="M16.2293 29.9555L12.0538 25.8734C13.0507 24.5735 13.5175 22.9439 13.36 21.3134C13.2025 19.6828 12.4325 18.1727 11.2053 17.0876C9.97807 16.0025 8.385 15.4232 6.74745 15.4666C5.1099 15.51 3.54974 16.1729 2.38172 17.3214C1.21369 18.47 0.524732 20.0188 0.453824 21.6554C0.382917 23.2919 0.935338 24.8945 1.99965 26.1398C3.06395 27.3851 4.56094 28.1804 6.1886 28.3652C7.81626 28.5501 9.45346 28.1108 10.7699 27.1359L14.9704 31.2425C15.0549 31.3251 15.1549 31.3903 15.2646 31.4344C15.3743 31.4784 15.4916 31.5004 15.6098 31.4991C15.728 31.4978 15.8448 31.4732 15.9535 31.4267C16.0622 31.3803 16.1607 31.3129 16.2433 31.2284C16.326 31.1439 16.3912 31.0439 16.4352 30.9342C16.4792 30.8245 16.5012 30.7072 16.4999 30.589C16.4986 30.4708 16.474 30.354 16.4276 30.2453C16.3811 30.1366 16.3138 30.0381 16.2293 29.9555ZM1.69993 21.9538C1.70135 20.9166 2.0102 19.9032 2.58745 19.0415C3.1647 18.1798 3.98443 17.5086 4.94304 17.1127C5.90166 16.7168 6.95613 16.6139 7.97318 16.8172C8.99023 17.0204 9.92422 17.5205 10.6571 18.2544C11.39 18.9883 11.8888 19.923 12.0907 20.9403C12.2925 21.9576 12.1882 23.0119 11.7909 23.97C11.3937 24.9281 10.7214 25.7469 9.85892 26.323C8.99646 26.899 7.98258 27.2065 6.94543 27.2065C5.55375 27.204 4.21989 26.6496 3.2365 25.6648C2.25311 24.6801 1.70051 23.3455 1.69993 21.9538Z" fill="black" fill-opacity="0.8"/>
</svg>
