<svg width="17" height="48" viewBox="0 0 17 48" fill="none" xmlns="http://www.w3.org/2000/svg">
<path d="M13.4574 16.9268H12.3221C12.2317 15.9757 11.79 15.0924 11.0832 14.4495C10.3764 13.8067 9.45531 13.4504 8.49988 13.4504C7.54446 13.4504 6.62335 13.8067 5.91655 14.4495C5.20974 15.0924 4.76802 15.9757 4.67768 16.9268H3.54238C2.85308 16.9277 2.19225 17.2019 1.70484 17.6893C1.21743 18.1767 0.94323 18.8375 0.942383 19.5268V28.45C0.94323 29.1393 1.21743 29.8002 1.70484 30.2876C2.19225 30.775 2.85308 31.0492 3.54238 31.05H13.4574C14.1467 31.0492 14.8075 30.775 15.2949 30.2876C15.7823 29.8002 16.0565 29.1393 16.0574 28.45V19.5269C16.0566 18.8376 15.7824 18.1768 15.295 17.6893C14.8075 17.2019 14.1467 16.9277 13.4574 16.9268ZM8.49988 14.65C9.13727 14.652 9.75272 14.883 10.234 15.3009C10.7153 15.7187 11.0305 16.2956 11.122 16.9264H5.87778C5.96929 16.2956 6.28442 15.7187 6.76573 15.3009C7.24705 14.883 7.86249 14.652 8.49988 14.65ZM14.8573 28.45C14.8569 28.8212 14.7093 29.1771 14.4468 29.4396C14.1844 29.702 13.8285 29.8497 13.4573 29.85H3.54238C3.17119 29.8497 2.81531 29.702 2.55284 29.4396C2.29037 29.1771 2.14275 28.8212 2.14238 28.45V19.5269C2.14275 19.1557 2.29037 18.7999 2.55284 18.5374C2.81531 18.2749 3.17119 18.1273 3.54238 18.1269H13.4574C13.8286 18.1273 14.1845 18.2749 14.4469 18.5374C14.7094 18.7999 14.857 19.1557 14.8574 19.5269L14.8573 28.45Z" fill="black" fill-opacity="0.8"/>
</svg>
